# xmcd
#
# Track frame offsets:
#   150
#   28900
#   47527
#   68907
#   97385
#   114352
#   135107
#   165357
#   184477
#   209822
#   237100
#   272380
#   305847
#
# Disc length: 4428 seconds
#
# Revision: 0
# Processed by: cddbd v1.4PL0 Copyright (c) Steve Scherf et al.
# Submitted via: uFREEDB 1.6.0
#
DISCID=b9114a0d
DTITLE=Classic Funk  Vol. 7 - Classic Funk  Vol. 7
DYEAR=1996
DGENRE=Blues
TTITLE0=Jeanette "Lady" Day/Come Let me Love you
TTITLE1=Rick James/Give it to me baby
TTITLE2=George Clinton/Atomic Dog
TTITLE3=Lakeside/Fantastic Voyage
TTITLE4=Malcom McLaren/Bufallo Girls
TTITLE5=Supreme Team Feat. Malcom McLarem/Hey D.J.
TTITLE6=Bill Winters/Lovely Day
TTITLE7=Beau Willians/Ce's la vie
TTITLE8=Bernard Whight/Mr. Clean
TTITLE9=AM-FM/You are the one
TTITLE10=Newcleuws/Jam on Revenge
TTITLE11=Soul Sonic Force/Planet Rock
TTITLE12=Toddy tee/Batteram
EXTD=
EXTT0=
EXTT1=
EXTT2=
EXTT3=
EXTT4=
EXTT5=
EXTT6=
EXTT7=
EXTT8=
EXTT9=
EXTT10=
EXTT11=
EXTT12=
PLAYORDER=
